<svg width="40" height="40" viewBox="0 0 40 40" fill="none" xmlns="http://www.w3.org/2000/svg">
<g clip-path="url(#clip0_1308_1383)">
<path d="M37.3334 4.99991C35.7374 6.12571 33.9703 6.98676 32.1001 7.54991C31.0963 6.39577 29.7623 5.57773 28.2785 5.20646C26.7946 4.83518 25.2326 4.92857 23.8035 5.474C22.3745 6.01943 21.1475 6.99058 20.2884 8.25611C19.4293 9.52163 18.9796 11.0205 19.0001 12.5499V14.2166C16.0711 14.2925 13.1689 13.6429 10.5518 12.3257C7.93465 11.0084 5.68394 9.06431 4.00008 6.66658C4.00008 6.66658 -2.66658 21.6666 12.3334 28.3332C8.90096 30.6632 4.81201 31.8315 0.666748 31.6666C15.6667 39.9999 34.0001 31.6666 34.0001 12.4999C33.9985 12.0357 33.9539 11.5726 33.8667 11.1166C35.5678 9.43907 36.7681 7.3211 37.3334 4.99991V4.99991Z" stroke="#FBFBFB" stroke-width="3.33333" stroke-linecap="round" stroke-linejoin="round"/>
</g>
<defs>
<clipPath id="clip0_1308_1383">
<rect width="40" height="40" fill="white"/>
</clipPath>
</defs>
</svg>
